<?xml version="1.0" encoding="UTF-8" standalone="no"?>
<!-- Created with Inkscape (http://www.inkscape.org/) -->

<svg
   xmlns:dc="http://purl.org/dc/elements/1.1/"
   xmlns:cc="http://creativecommons.org/ns#"
   xmlns:rdf="http://www.w3.org/1999/02/22-rdf-syntax-ns#"
   xmlns:svg="http://www.w3.org/2000/svg"
   xmlns="http://www.w3.org/2000/svg"
   xmlns:sodipodi="http://sodipodi.sourceforge.net/DTD/sodipodi-0.dtd"
   xmlns:inkscape="http://www.inkscape.org/namespaces/inkscape"
   width="1920"
   height="800"
   viewBox="0 0 508 211.66667"
   version="1.1"
   id="svg8"
   inkscape:version="0.92.3 (2405546, 2018-03-11)"
   sodipodi:docname="process-infograph-cut.svg">
  <defs
     id="defs2" />
  <sodipodi:namedview
     id="base"
     pagecolor="#ffffff"
     bordercolor="#666666"
     borderopacity="1.0"
     inkscape:pageopacity="0.0"
     inkscape:pageshadow="2"
     inkscape:zoom="0.35"
     inkscape:cx="1078.447"
     inkscape:cy="242.08119"
     inkscape:document-units="mm"
     inkscape:current-layer="layer1"
     showgrid="false"
     units="px"
     inkscape:window-width="1920"
     inkscape:window-height="1050"
     inkscape:window-x="1920"
     inkscape:window-y="0"
     inkscape:window-maximized="1" />
  <metadata
     id="metadata5">
    <rdf:RDF>
      <cc:Work
         rdf:about="">
        <dc:format>image/svg+xml</dc:format>
        <dc:type
           rdf:resource="http://purl.org/dc/dcmitype/StillImage" />
        <dc:title></dc:title>
      </cc:Work>
    </rdf:RDF>
  </metadata>
  <g
     inkscape:label="Layer 1"
     inkscape:groupmode="layer"
     id="layer1"
     transform="translate(0,-85.333349)">
    <path
       style="fill:#ae0000;fill-opacity:1;stroke:#000000;stroke-width:0.28014567;stroke-miterlimit:4;stroke-dasharray:none;stroke-opacity:0"
       d="M 108.13595,179.60473 H 99.912335 A 45.837719,49.235038 0 0 1 54.074566,228.83978 45.837719,49.235038 0 0 1 8.2368029,179.60473 H 0.01297011 A 54.061548,58.068374 0 0 0 54.074566,237.67314 54.061548,58.068374 0 0 0 108.13595,179.60473 Z"
       id="path4562"
       inkscape:connector-curvature="0" />
    <path
       style="fill:#ae0000;fill-opacity:1;stroke:#000000;stroke-width:0.28014567;stroke-miterlimit:4;stroke-dasharray:none;stroke-opacity:0"
       d="m 153.97402,121.53662 a 54.061548,58.068374 0 0 0 -54.061685,58.06811 h 8.223895 a 45.837719,49.235038 0 0 1 45.83779,-49.23501 45.837719,49.235038 0 0 1 45.8376,49.23501 h 8.22359 a 54.061548,58.068374 0 0 0 -54.06119,-58.06811 z"
       id="path822"
       inkscape:connector-curvature="0" />
    <path
       style="fill:#ae0000;fill-opacity:1;stroke:#000000;stroke-width:0.28014567;stroke-miterlimit:4;stroke-dasharray:none;stroke-opacity:0"
       d="m 307.93444,179.60473 h -8.22358 a 45.83772,49.235039 0 0 1 -45.83783,49.23505 45.83772,49.235039 0 0 1 -45.83782,-49.23505 h -8.22387 a 54.061548,58.068374 0 0 0 54.06169,58.06841 54.061548,58.068374 0 0 0 54.06141,-58.06841 z"
       id="path4562-7"
       inkscape:connector-curvature="0" />
    <path
       style="fill:#ae0000;fill-opacity:1;stroke:#000000;stroke-width:0.28014567;stroke-miterlimit:4;stroke-dasharray:none;stroke-opacity:0"
       d="m 353.77232,121.53662 a 54.061548,58.068374 0 0 0 -54.06146,58.06811 h 8.22386 a 45.83772,49.235039 0 0 1 45.8376,-49.23501 45.83772,49.235039 0 0 1 45.8378,49.23501 h 8.2236 a 54.061548,58.068374 0 0 0 -54.0614,-58.06811 z"
       id="path822-5"
       inkscape:connector-curvature="0" />
    <path
       style="fill:#ae0000;fill-opacity:1;stroke:#000000;stroke-width:0.28014567;stroke-miterlimit:4;stroke-dasharray:none;stroke-opacity:0"
       d="m 507.73277,179.60473 h -8.22357 a 45.837721,49.235041 0 0 1 -45.83765,49.23505 45.837721,49.235041 0 0 1 -45.83783,-49.23505 h -8.2239 a 54.061548,58.068374 0 0 0 54.06173,58.06841 54.061548,58.068374 0 0 0 54.06122,-58.06841 z"
       id="path4562-7-1"
       inkscape:connector-curvature="0" />
  </g>
</svg>
