<?xml version="1.0" encoding="UTF-8" standalone="no"?>
<svg
   xmlns:dc="http://purl.org/dc/elements/1.1/"
   xmlns:cc="http://creativecommons.org/ns#"
   xmlns:rdf="http://www.w3.org/1999/02/22-rdf-syntax-ns#"
   xmlns:svg="http://www.w3.org/2000/svg"
   xmlns="http://www.w3.org/2000/svg"
   xmlns:sodipodi="http://sodipodi.sourceforge.net/DTD/sodipodi-0.dtd"
   xmlns:inkscape="http://www.inkscape.org/namespaces/inkscape"
   id="svg8"
   version="1.1"
   viewBox="0 0 508 211.66667"
   height="800"
   width="1920"
   sodipodi:docname="process-infograph-web.svg"
   inkscape:version="0.92.3 (2405546, 2018-03-11)">
  <sodipodi:namedview
     pagecolor="#ffffff"
     bordercolor="#666666"
     borderopacity="1"
     objecttolerance="10"
     gridtolerance="10"
     guidetolerance="10"
     inkscape:pageopacity="0"
     inkscape:pageshadow="2"
     inkscape:window-width="1920"
     inkscape:window-height="1050"
     id="namedview11"
     showgrid="false"
     inkscape:zoom="0.50381358"
     inkscape:cx="803.02939"
     inkscape:cy="357.04042"
     inkscape:window-x="1920"
     inkscape:window-y="0"
     inkscape:window-maximized="1"
     inkscape:current-layer="layer1" />
  <defs
     id="defs2" />
  <metadata
     id="metadata5">
    <rdf:RDF>
      <cc:Work
         rdf:about="">
        <dc:format>image/svg+xml</dc:format>
        <dc:type
           rdf:resource="http://purl.org/dc/dcmitype/StillImage" />
        <dc:title />
      </cc:Work>
    </rdf:RDF>
  </metadata>
  <g
     transform="translate(0,-85.333349)"
     id="layer1">
    <path
       style="stroke-width:3.77952743"
       d="M 581.94922 136.83203 A 204.32711 219.47102 0 0 0 377.62109 356.30078 A 173.24492 186.08518 0 0 1 204.37695 542.38672 A 173.24492 186.08518 0 0 1 31.130859 356.30078 L 0.048828125 356.30078 A 204.32711 219.47102 0 0 0 204.37695 575.77148 A 204.32711 219.47102 0 0 0 408.70312 356.30078 A 173.24492 186.08518 0 0 1 581.94922 170.2168 A 173.24492 186.08518 0 0 1 755.19336 356.30078 A 204.32711 219.47102 0 0 0 959.51953 575.77148 A 204.32711 219.47102 0 0 0 1163.8477 356.30078 A 173.24492 186.08519 0 0 1 1337.0918 170.2168 A 173.24492 186.08519 0 0 1 1510.3379 356.30078 L 1510.3359 356.30078 A 204.32711 219.47102 0 0 0 1714.6641 575.77148 A 204.32711 219.47102 0 0 0 1918.9902 356.30078 L 1887.9082 356.30078 A 173.24493 186.08519 0 0 1 1714.6641 542.38672 A 173.24493 186.08519 0 0 1 1541.418 356.30078 A 204.32711 219.47102 0 0 0 1337.0918 136.83203 A 204.32711 219.47102 0 0 0 1132.7656 356.30078 A 173.24492 186.08519 0 0 1 959.51953 542.38672 A 173.24492 186.08519 0 0 1 786.27539 356.30078 A 204.32711 219.47102 0 0 0 581.94922 136.83203 z "
       transform="matrix(0.26458334,0,0,0.26458334,0,85.333349)"
       id="path4562" />
  </g>
</svg>
