<?xml version="1.0" encoding="UTF-8" standalone="no"?>
<svg
   xmlns:dc="http://purl.org/dc/elements/1.1/"
   xmlns:cc="http://creativecommons.org/ns#"
   xmlns:rdf="http://www.w3.org/1999/02/22-rdf-syntax-ns#"
   xmlns:svg="http://www.w3.org/2000/svg"
   xmlns="http://www.w3.org/2000/svg"
   xmlns:sodipodi="http://sodipodi.sourceforge.net/DTD/sodipodi-0.dtd"
   xmlns:inkscape="http://www.inkscape.org/namespaces/inkscape"
   id="svg8"
   version="1.1"
   viewBox="0 0 508 211.66667"
   height="800"
   width="1920"
   sodipodi:docname="process-infograph-web-2.svg"
   inkscape:version="0.92.3 (2405546, 2018-03-11)">
  <sodipodi:namedview
     pagecolor="#ffffff"
     bordercolor="#666666"
     borderopacity="1"
     objecttolerance="10"
     gridtolerance="10"
     guidetolerance="10"
     inkscape:pageopacity="0"
     inkscape:pageshadow="2"
     inkscape:window-width="1920"
     inkscape:window-height="1050"
     id="namedview11"
     showgrid="false"
     inkscape:zoom="0.50381358"
     inkscape:cx="825.7549"
     inkscape:cy="592.38293"
     inkscape:window-x="1920"
     inkscape:window-y="0"
     inkscape:window-maximized="1"
     inkscape:current-layer="g1582" />
  <defs
     id="defs2" />
  <metadata
     id="metadata5">
    <rdf:RDF>
      <cc:Work
         rdf:about="">
        <dc:format>image/svg+xml</dc:format>
        <dc:type
           rdf:resource="http://purl.org/dc/dcmitype/StillImage" />
        <dc:title />
      </cc:Work>
    </rdf:RDF>
  </metadata>
  <g
     transform="translate(0,-85.333349)"
     id="layer1">
    <path
       style="stroke-width:3.77952743"
       d="M 581.94922 136.83203 A 204.32711 219.47102 0 0 0 377.62109 356.30078 A 173.24492 186.08518 0 0 1 204.37695 542.38672 A 173.24492 186.08518 0 0 1 31.130859 356.30078 L 0.048828125 356.30078 A 204.32711 219.47102 0 0 0 204.37695 575.77148 A 204.32711 219.47102 0 0 0 408.70312 356.30078 A 173.24492 186.08518 0 0 1 581.94922 170.2168 A 173.24492 186.08518 0 0 1 755.19336 356.30078 A 204.32711 219.47102 0 0 0 959.51953 575.77148 A 204.32711 219.47102 0 0 0 1163.8477 356.30078 A 173.24492 186.08519 0 0 1 1337.0918 170.2168 A 173.24492 186.08519 0 0 1 1510.3379 356.30078 L 1510.3359 356.30078 A 204.32711 219.47102 0 0 0 1714.6641 575.77148 A 204.32711 219.47102 0 0 0 1918.9902 356.30078 L 1887.9082 356.30078 A 173.24493 186.08519 0 0 1 1714.6641 542.38672 A 173.24493 186.08519 0 0 1 1541.418 356.30078 A 204.32711 219.47102 0 0 0 1337.0918 136.83203 A 204.32711 219.47102 0 0 0 1132.7656 356.30078 A 173.24492 186.08519 0 0 1 959.51953 542.38672 A 173.24492 186.08519 0 0 1 786.27539 356.30078 A 204.32711 219.47102 0 0 0 581.94922 136.83203 z "
       id="path4562"
       transform="matrix(0.26458334,0,0,0.26458334,0,85.333349)" />
    <g
       transform="matrix(0.26458334,0,0,0.26458334,-3.6636706,59.114351)"
       id="g2206">
      <g
         transform="translate(31.757779)"
         id="g1582">
        <g
           id="g1580"
           transform="matrix(0.41849772,0,0,0.40684123,77.40959,349.34256)">
          <path
             inkscape:connector-curvature="0"
             id="path1578"
             d="M 503.213,284.99 482,263.777 c -5.857,-5.858 -15.355,-5.858 -21.213,0 -5.858,5.858 -5.858,15.355 0,21.213 L 482,306.203 c 5.857,5.857 15.355,5.858 21.213,0 5.858,-5.858 5.858,-15.355 0,-21.213 z m 0,-201.213 c -5.857,-5.858 -15.355,-5.858 -21.213,0 l -21.213,21.213 c -5.858,5.858 -5.858,15.355 0,21.213 5.857,5.857 15.355,5.858 21.213,0 l 21.213,-21.213 c 5.858,-5.858 5.858,-15.355 0,-21.213 z M 497,179.99 h -30 c -8.284,0 -15,6.716 -15,15 0,8.284 6.716,15 15,15 h 30 c 8.284,0 15,-6.716 15,-15 0,-8.284 -6.716,-15 -15,-15 z M 51.213,263.777 c -5.858,-5.858 -15.356,-5.858 -21.213,0 L 8.787,284.99 c -5.858,5.858 -5.858,15.355 0,21.213 5.857,5.858 15.355,5.859 21.213,0 L 51.213,284.99 c 5.858,-5.858 5.858,-15.355 0,-21.213 z m 0,-158.787 L 30,83.777 c -5.857,-5.858 -15.355,-5.858 -21.213,0 -5.858,5.858 -5.858,15.355 0,21.213 L 30,126.203 c 5.857,5.858 15.355,5.859 21.213,0 5.858,-5.858 5.858,-15.355 0,-21.213 z M 45,179.99 H 15 c -8.284,0 -15,6.716 -15,15 0,8.284 6.716,15 15,15 h 30 c 8.284,0 15,-6.716 15,-15 0,-8.284 -6.716,-15 -15,-15 z M 217.335,4.03 C 149.565,18.191 94.615,72.615 80.156,140.806 67.947,198.388 82.992,256.198 121.433,299.413 140.224,320.536 151,348.419 151,375.99 v 30 c 0,19.96 13.067,36.917 31.093,42.79 5.928,35.025 36.328,63.209 73.907,63.209 37.569,0 67.977,-28.175 73.907,-63.209 C 347.933,442.907 361,425.95 361,405.989 v -30 c 0,-27.625 10.812,-55.173 30.442,-77.569 C 420.176,265.64 436,223.58 436,179.99 436,66.425 332.051,-19.936 217.335,4.03 Z M 256,481.99 c -19.282,0 -36.188,-13.268 -42.431,-31.1 h 84.861 c -6.242,17.832 -23.148,31.1 -42.43,31.1 z m 75,-76 c 0,8.271 -6.729,15 -15,15 H 196 c -8.271,0 -15,-6.729 -15,-15 v -15 h 150 z m 37.882,-127.343 c -20.92,23.867 -33.791,52.647 -37.057,82.343 H 180.178 C 176.916,331.278 164.078,302.215 143.85,279.474 111.812,243.458 99.293,195.183 109.504,147.029 121.423,90.815 167.223,45.15 223.472,33.397 319.496,13.33 406,85.442 406,179.99 c 0,36.312 -13.182,71.349 -37.118,98.657 z M 255.985,59.99 c -8.284,0 -15,6.716 -15,15 0,8.284 6.716,15 15,15 49.634,0 90.015,40.374 90.015,90 0,8.284 6.716,15 15,15 8.284,0 15,-6.716 15,-15 0,-66.168 -53.838,-120 -120.015,-120 z" />
        </g>
      </g>
    </g>
  </g>
</svg>
