<?xml version="1.0" encoding="UTF-8" standalone="no"?>
<svg
   xmlns:dc="http://purl.org/dc/elements/1.1/"
   xmlns:cc="http://creativecommons.org/ns#"
   xmlns:rdf="http://www.w3.org/1999/02/22-rdf-syntax-ns#"
   xmlns:svg="http://www.w3.org/2000/svg"
   xmlns="http://www.w3.org/2000/svg"
   xmlns:sodipodi="http://sodipodi.sourceforge.net/DTD/sodipodi-0.dtd"
   xmlns:inkscape="http://www.inkscape.org/namespaces/inkscape"
   id="svg8"
   version="1.1"
   viewBox="0 0 508 211.66667"
   height="800"
   width="1920"
   sodipodi:docname="process-infograph-web-3.svg"
   inkscape:version="0.92.3 (2405546, 2018-03-11)">
  <sodipodi:namedview
     pagecolor="#ffffff"
     bordercolor="#666666"
     borderopacity="1"
     objecttolerance="10"
     gridtolerance="10"
     guidetolerance="10"
     inkscape:pageopacity="0"
     inkscape:pageshadow="2"
     inkscape:window-width="1920"
     inkscape:window-height="1050"
     id="namedview11"
     showgrid="false"
     inkscape:zoom="0.50381358"
     inkscape:cx="1184.8878"
     inkscape:cy="857.38544"
     inkscape:window-x="1920"
     inkscape:window-y="0"
     inkscape:window-maximized="1"
     inkscape:current-layer="g1297" />
  <defs
     id="defs2" />
  <metadata
     id="metadata5">
    <rdf:RDF>
        <cc:Work
         rdf:about="">
        <dc:format>image/svg+xml</dc:format>
        <dc:type
           rdf:resource="http://purl.org/dc/dcmitype/StillImage" />
        <dc:title></dc:title>
    </cc:Work>
</rdf:RDF>
  </metadata>
  <g
     transform="translate(0,-85.333349)"
     id="layer1">
    <path
       style="stroke-width:3.77952743"
       d="M 581.94922 136.83203 A 204.32711 219.47102 0 0 0 377.62109 356.30078 A 173.24492 186.08518 0 0 1 204.37695 542.38672 A 173.24492 186.08518 0 0 1 31.130859 356.30078 L 0.048828125 356.30078 A 204.32711 219.47102 0 0 0 204.37695 575.77148 A 204.32711 219.47102 0 0 0 408.70312 356.30078 A 173.24492 186.08518 0 0 1 581.94922 170.2168 A 173.24492 186.08518 0 0 1 755.19336 356.30078 A 204.32711 219.47102 0 0 0 959.51953 575.77148 A 204.32711 219.47102 0 0 0 1163.8477 356.30078 A 173.24492 186.08519 0 0 1 1337.0918 170.2168 A 173.24492 186.08519 0 0 1 1510.3379 356.30078 L 1510.3359 356.30078 A 204.32711 219.47102 0 0 0 1714.6641 575.77148 A 204.32711 219.47102 0 0 0 1918.9902 356.30078 L 1887.9082 356.30078 A 173.24493 186.08519 0 0 1 1714.6641 542.38672 A 173.24493 186.08519 0 0 1 1541.418 356.30078 A 204.32711 219.47102 0 0 0 1337.0918 136.83203 A 204.32711 219.47102 0 0 0 1132.7656 356.30078 A 173.24492 186.08519 0 0 1 959.51953 542.38672 A 173.24492 186.08519 0 0 1 786.27539 356.30078 A 204.32711 219.47102 0 0 0 581.94922 136.83203 z "
       id="path4562"
       transform="matrix(0.26458334,0,0,0.26458334,0,85.333349)" />
    <g
       transform="matrix(0.26458334,0,0,0.26458334,-3.6636706,59.114351)"
       id="g2206">
      <g
         transform="translate(31.757779)"
         id="g1582">
        <g
           id="g979"
           transform="matrix(0.45726348,0,0,0.47444263,448.09751,321.29079)">
          <g
             id="g877">
    <g
   id="g875">
        <path
   id="path873"
   d="m 438.09,273.32 h -39.596 c 4.036,11.05 6.241,22.975 6.241,35.404 v 149.65 c 0,5.182 -0.902,10.156 -2.543,14.782 h 65.461 c 24.453,0 44.346,-19.894 44.346,-44.346 V 347.229 C 512,306.476 478.844,273.32 438.09,273.32 Z"
   inkscape:connector-curvature="0" />

    </g>

</g>
          <g
             id="g883">
    <g
   id="g881">
        <path
   id="path879"
   d="m 107.265,308.725 c 0,-12.43 2.205,-24.354 6.241,-35.404 H 73.91 C 33.156,273.321 0,306.477 0,347.231 v 81.581 c 0,24.452 19.893,44.346 44.346,44.346 h 65.462 c -1.641,-4.628 -2.543,-9.601 -2.543,-14.783 z"
   inkscape:connector-curvature="0" />

    </g>

</g>
          <g
             id="g889">
    <g
   id="g887">
        <path
   id="path885"
   d="m 301.261,234.815 h -90.522 c -40.754,0 -73.91,33.156 -73.91,73.91 v 149.65 c 0,8.163 6.618,14.782 14.782,14.782 h 208.778 c 8.164,0 14.782,-6.618 14.782,-14.782 v -149.65 c 0,-40.754 -33.156,-73.91 -73.91,-73.91 z"
   inkscape:connector-curvature="0" />

    </g>

</g>
          <g
             id="g895">
    <g
   id="g893">
        <path
   id="path891"
   d="m 256,38.84 c -49.012,0 -88.886,39.874 -88.886,88.887 0,33.245 18.349,62.28 45.447,77.524 12.853,7.23 27.671,11.362 43.439,11.362 15.768,0 30.586,-4.132 43.439,-11.362 27.099,-15.244 45.447,-44.28 45.447,-77.524 C 344.886,78.715 305.012,38.84 256,38.84 Z"
   inkscape:connector-curvature="0" />

    </g>

</g>
          <g
             id="g901">
    <g
   id="g899">
        <path
   id="path897"
   d="m 99.918,121.689 c -36.655,0 -66.475,29.82 -66.475,66.475 0,36.655 29.82,66.475 66.475,66.475 9.298,0 18.152,-1.926 26.195,-5.388 13.906,-5.987 25.372,-16.585 32.467,-29.86 4.98,-9.317 7.813,-19.946 7.813,-31.227 0,-36.654 -29.82,-66.475 -66.475,-66.475 z"
   inkscape:connector-curvature="0" />

    </g>

</g>
          <g
             id="g907">
    <g
   id="g905">
        <path
   id="path903"
   d="m 412.082,121.689 c -36.655,0 -66.475,29.82 -66.475,66.475 0,11.282 2.833,21.911 7.813,31.227 7.095,13.276 18.561,23.874 32.467,29.86 8.043,3.462 16.897,5.388 26.195,5.388 36.655,0 66.475,-29.82 66.475,-66.475 0,-36.655 -29.82,-66.475 -66.475,-66.475 z"
   inkscape:connector-curvature="0" />

    </g>

</g>
          <g
             id="g909">
</g>
          <g
             id="g911">
</g>
          <g
             id="g913">
</g>
          <g
             id="g915">
</g>
          <g
             id="g917">
</g>
          <g
             id="g919">
</g>
          <g
             id="g921">
</g>
          <g
             id="g923">
</g>
          <g
             id="g925">
</g>
          <g
             id="g927">
</g>
          <g
             id="g929">
</g>
          <g
             id="g931">
</g>
          <g
             id="g933">
</g>
          <g
             id="g935">
</g>
          <g
             id="g937">
</g>
        </g>
        <g
           id="g1039"
           transform="matrix(0.51739268,0,0,0.39328944,813.70587,347.02479)">
          <g
             id="g983">
    <path
   id="path981"
   d="m 309.43,219.944 c -19,-10.5 -39.2,-18.5 -59.2,-26.8 -11.6,-4.8 -22.7,-10.4 -32.5,-18.2 -19.3,-15.4 -15.6,-40.4 7,-50.3 6.4,-2.8 13.1,-3.7 19.9,-4.1 26.2,-1.4 51.1,3.4 74.8,14.8 11.8,5.7 15.7,3.9 19.7,-8.4 4.2,-13 7.7,-26.2 11.6,-39.3 2.6,-8.8 -0.6,-14.6 -8.9,-18.3 -15.2,-6.7 -30.8,-11.5 -47.2,-14.1 -21.4,-3.3 -21.4,-3.4 -21.5,-24.9 -0.1,-30.3 -0.1,-30.3 -30.5,-30.3 -4.4,0 -8.8,-0.1 -13.2,0 -14.2,0.4 -16.6,2.9 -17,17.2 -0.2,6.4 0,12.8 -0.1,19.3 -0.1,19 -0.2,18.7 -18.4,25.3 -44,16 -71.2,46 -74.1,94 -2.6,42.5 19.6,71.2 54.5,92.1 21.5,12.9 45.3,20.5 68.1,30.6 8.9,3.9 17.4,8.4 24.8,14.6 21.9,18.1 17.9,48.2 -8.1,59.6 -13.9,6.1 -28.6,7.6 -43.7,5.7 -23.3,-2.9 -45.6,-9 -66.6,-19.9 -12.3,-6.4 -15.9,-4.7 -20.1,8.6 -3.6,11.5 -6.8,23.1 -10,34.7 -4.3,15.6 -2.7,19.3 12.2,26.6 19,9.2 39.3,13.9 60,17.2 16.2,2.6 16.7,3.3 16.9,20.1 0.1,7.6 0.1,15.3 0.2,22.9 0.1,9.6 4.7,15.2 14.6,15.4 11.2,0.2 22.5,0.2 33.7,-0.1 9.2,-0.2 13.9,-5.2 13.9,-14.5 0,-10.4 0.5,-20.9 0.1,-31.3 -0.5,-10.6 4.1,-16 14.3,-18.8 23.5,-6.4 43.5,-19 58.9,-37.8 42.8,-52 26.5,-128.1 -34.1,-161.6 z"
   inkscape:connector-curvature="0" />

</g>
          <g
             id="g985">
</g>
          <g
             id="g987">
</g>
          <g
             id="g989">
</g>
          <g
             id="g991">
</g>
          <g
             id="g993">
</g>
          <g
             id="g995">
</g>
          <g
             id="g997">
</g>
          <g
             id="g999">
</g>
          <g
             id="g1001">
</g>
          <g
             id="g1003">
</g>
          <g
             id="g1005">
</g>
          <g
             id="g1007">
</g>
          <g
             id="g1009">
</g>
          <g
             id="g1011">
</g>
          <g
             id="g1013">
</g>
        </g>
        <g
           id="g1129"
           transform="matrix(0.48052463,0,0,0.47498886,1196.0491,314.37374)">
          <g
             id="g1045">
    <g
   id="g1043">

    </g>

</g>
          <g
             id="g1051">
    <g
   id="g1049">

    </g>

</g>
          <g
             id="g1057">
    <g
   id="g1055">

    </g>

</g>
          <g
             id="g1063">
    <g
   id="g1061">
        <path
   id="path1059"
   d="m 386.133,337.067 c -8.533,-19.2 -44.8,-46.933 -76.8,-72.533 C 292.267,249.6 275.2,236.8 262.4,226.133 c -2.133,2.133 -6.4,2.133 -6.4,4.267 -6.4,2.133 -8.533,4.267 -17.067,4.267 C 221.867,256 200.533,264.533 177.067,256 166.4,253.867 160,245.333 157.867,236.8 153.6,215.467 172.8,185.6 187.734,170.667 h -42.667 c -8.533,42.667 -23.467,98.133 -34.133,128 8.533,8.533 17.067,19.2 23.467,23.467 40.533,34.133 87.467,68.267 96,74.667 6.4,4.267 19.2,8.533 25.6,8.533 2.133,0 4.267,0 6.4,0 L 228.267,371.2 c -4.267,-4.267 -4.267,-10.667 0,-14.933 4.267,-4.266 10.667,-4.267 14.933,0 l 42.667,42.667 c 4.267,4.267 8.533,2.133 12.8,2.133 6.4,-2.133 8.533,-6.4 10.667,-12.8 L 260.267,339.2 c -4.267,-4.267 -4.267,-10.667 0,-14.933 4.267,-4.266 10.667,-4.267 14.933,0 l 53.333,53.333 c 2.133,2.133 10.667,2.133 17.067,0 2.133,-2.133 6.4,-4.267 8.533,-8.533 L 294.4,309.333 c -4.267,-4.267 -4.267,-10.667 0,-14.933 4.267,-4.266 10.667,-4.267 14.933,0 l 61.867,61.867 c 4.267,2.133 8.533,0 12.8,-2.133 2.133,-2.134 6.4,-8.534 2.133,-17.067 z M 501.333,128 c -83.2,0 -130.133,21.333 -132.267,21.333 -2.133,2.133 -4.267,4.267 -6.4,6.4 0,2.133 0,6.4 2.133,8.533 12.8,21.333 55.467,138.667 61.867,168.533 2.133,4.267 6.4,8.533 10.667,8.533 h 64 c 6.4,0 10.667,-4.267 10.667,-10.667 v -192 C 512,132.267 507.733,128 501.333,128 Z M 352,181.333 C 330.667,174.933 311.467,166.4 294.4,160 c -38.4,-17.067 -55.467,-8.533 -89.6,25.6 -14.933,14.933 -25.6,36.267 -23.467,44.8 0,2.133 0,2.133 4.267,4.267 10.667,4.267 25.6,6.4 40.533,-17.067 2.133,-2.133 4.267,-4.267 8.533,-4.267 6.4,0 8.533,-2.133 14.933,-4.267 4.267,-2.133 8.533,-4.267 14.933,-6.4 2.133,0 2.133,0 4.267,0 2.133,0 6.4,2.133 8.533,2.133 10.668,10.668 29.868,25.601 49.068,42.668 29.867,23.467 59.733,49.067 74.667,68.267 H 403.2 C 388.267,273.067 362.667,200.533 352,181.333 Z m -228.267,-51.2 C 106.666,113.066 34.133,108.8 10.666,106.666 c -2.133,0 -4.267,0 -6.4,2.133 C 2.133,110.933 0,115.2 0,117.333 v 192 C 0,315.733 4.267,320 10.667,320 h 64 c 4.267,0 8.533,-2.133 10.667,-6.4 0,-6.4 38.4,-119.467 42.667,-174.933 -0.001,-2.134 -0.001,-6.4 -4.268,-8.534 z" />

    </g>

</g>
          <g
             id="g1065">
</g>
          <g
             id="g1067">
</g>
          <g
             id="g1069">
</g>
          <g
             id="g1071">
</g>
          <g
             id="g1073">
</g>
          <g
             id="g1075">
</g>
          <g
             id="g1077">
</g>
          <g
             id="g1079">
</g>
          <g
             id="g1081">
</g>
          <g
             id="g1083">
</g>
          <g
             id="g1085">
</g>
          <g
             id="g1087">
</g>
          <g
             id="g1089">
</g>
          <g
             id="g1091">
</g>
          <g
             id="g1093">
</g>
        </g>
        <g
           id="g1297"
           transform="matrix(0.50350557,0,0,0.39582438,1561.8783,300.64009)">
          <path
             id="path1286"
             d="m 15,322.31 c 93.618,0 195.14,-33.622 285.866,-94.673 71.055,-47.815 130.286,-108.898 167.078,-171.445 l 14.568,54.367 c 1.796,6.702 10.467,12.492 18.371,10.606 8.058,-1.922 12.75,-10.369 10.606,-18.371 L 486.926,11.124 C 484.781,3.123 476.56,-1.627 468.555,0.518 l -91.67,24.563 c -8.002,2.144 -12.75,10.369 -10.606,18.371 2.145,8.002 10.366,12.752 18.371,10.606 L 443.705,38.234 C 409.38,97.88 352.652,156.628 284.117,202.747 198.289,260.503 102.715,292.31 15,292.31 c -8.284,0 -15,6.716 -15,15 0,8.284 6.716,15 15,15 z m 482,159.696 h -16 v -296 c 0,-8.284 -6.716,-15 -15,-15 h -60 c -8.284,0 -15,6.716 -15,15 v 296 h -30 v -196 c 0,-8.284 -6.716,-15 -15,-15 h -60 c -8.284,0 -15,6.716 -15,15 v 196 h -30 v -141 c 0,-8.284 -6.716,-15 -15,-15 h -60 c -8.284,0 -15,6.716 -15,15 v 141 h -30 v -105 c 0,-8.284 -6.716,-15 -15,-15 H 46 c -8.284,0 -15,6.716 -15,15 v 105 H 15 c -8.284,0 -15,6.716 -15,15 0,8.284 6.716,15 15,15 h 482 c 8.284,0 15,-6.716 15,-15 0,-8.284 -6.716,-15 -15,-15 z" />
        </g>
        <g
           id="g1339"
           transform="matrix(8.4678361,0,0,8.8187133,85.387409,337.13052)">
          <path
             id="path1319"
             d="m 15.05,19.5 v 0.01 C 15.03,19.5 15.02,19.5 15,19.5 Z m -6.12,0 H 9 c -0.02,0 -0.05,0 -0.07,0.01 z M 16.41,6.56 C 14.77,5.23 12.61,4.71 10.5,5.16 7.85,5.71 5.7,7.87 5.15,10.52 c -0.56,2.72 0.46,5.42 2.64,7.07 0.59,0.44 1,1.12 1.14,1.91 v 0.01 C 8.95,19.5 8.98,19.5 9,19.5 h 6 c 0.02,0 0.03,0 0.05,0.01 V 19.5 c 0.14,-0.76 0.59,-1.46 1.28,-2 C 18.02,16.16 19,14.16 19,12 19,9.88 18.06,7.9 16.41,6.56 Z M 15.75,12.5 C 15.34,12.5 15,12.16 15,11.75 15,10.23 13.77,9 12.25,9 11.84,9 11.5,8.66 11.5,8.25 c 0,-0.41 0.34,-0.75 0.75,-0.75 2.34,0 4.25,1.91 4.25,4.25 0,0.41 -0.34,0.75 -0.75,0.75 z M 15,21 v 1.25 C 15,23.21 14.21,24 13.25,24 h -2.5 C 9.91,24 9,23.36 9,21.96 V 21 Z M 5.429,6.179 c -0.192,0 -0.384,-0.073 -0.53,-0.22 L 3.515,4.575 c -0.293,-0.293 -0.293,-0.768 0,-1.061 0.293,-0.293 0.768,-0.293 1.061,0 L 5.96,4.898 c 0.293,0.293 0.293,0.768 0,1.061 -0.148,0.146 -0.339,0.22 -0.531,0.22 z M 2.707,12.75 H 0.75 C 0.336,12.75 0,12.414 0,12 0,11.586 0.336,11.25 0.75,11.25 h 1.957 c 0.414,0 0.75,0.336 0.75,0.75 0,0.414 -0.336,0.75 -0.75,0.75 z m 1.338,7.955 c -0.192,0 -0.384,-0.073 -0.53,-0.22 -0.293,-0.293 -0.293,-0.768 0,-1.061 L 4.899,18.04 c 0.293,-0.293 0.768,-0.293 1.061,0 0.293,0.293 0.293,0.768 0,1.061 l -1.384,1.384 c -0.147,0.147 -0.339,0.22 -0.531,0.22 z m 15.91,0 c -0.192,0 -0.384,-0.073 -0.53,-0.22 l -1.384,-1.384 c -0.293,-0.293 -0.293,-0.768 0,-1.061 0.293,-0.293 0.768,-0.293 1.061,0 l 1.384,1.384 c 0.293,0.293 0.293,0.768 0,1.061 -0.147,0.147 -0.339,0.22 -0.531,0.22 z M 23.25,12.75 h -1.957 c -0.414,0 -0.75,-0.336 -0.75,-0.75 0,-0.414 0.336,-0.75 0.75,-0.75 h 1.957 c 0.414,0 0.75,0.336 0.75,0.75 0,0.414 -0.336,0.75 -0.75,0.75 z M 18.571,6.179 c -0.192,0 -0.384,-0.073 -0.53,-0.22 -0.293,-0.293 -0.293,-0.768 0,-1.061 l 1.384,-1.384 c 0.293,-0.293 0.768,-0.293 1.061,0 0.293,0.293 0.293,0.768 0,1.061 l -1.384,1.384 c -0.147,0.146 -0.339,0.22 -0.531,0.22 z M 12,3.457 c -0.414,0 -0.75,-0.336 -0.75,-0.75 V 0.75 C 11.25,0.336 11.586,0 12,0 c 0.414,0 0.75,0.336 0.75,0.75 v 1.957 c 0,0.414 -0.336,0.75 -0.75,0.75 z" />
        </g>
    </g>
</g>
  </g>
</svg>
