<?xml version="1.0" encoding="UTF-8" standalone="no"?>
<!-- Created with Inkscape (http://www.inkscape.org/) -->

<svg
   xmlns:dc="http://purl.org/dc/elements/1.1/"
   xmlns:cc="http://creativecommons.org/ns#"
   xmlns:rdf="http://www.w3.org/1999/02/22-rdf-syntax-ns#"
   xmlns:svg="http://www.w3.org/2000/svg"
   xmlns="http://www.w3.org/2000/svg"
   xmlns:sodipodi="http://sodipodi.sourceforge.net/DTD/sodipodi-0.dtd"
   xmlns:inkscape="http://www.inkscape.org/namespaces/inkscape"
   width="1050"
   height="230"
   viewBox="0 0 277.813 60.854438"
   version="1.1"
   id="svg8"
   inkscape:version="0.92.3 (2405546, 2018-03-11)"
   sodipodi:docname="logo.svg">
  <defs
     id="defs2">
    <clipPath
       id="clipPath18"
       clipPathUnits="userSpaceOnUse">
      <path
         id="path16"
         d="M 0,1024 H 1024 V 0 H 0 Z"
         inkscape:connector-curvature="0" />
    </clipPath>
    <clipPath
       id="clipPath18-3"
       clipPathUnits="userSpaceOnUse">
      <path
         inkscape:connector-curvature="0"
         id="path16-6"
         d="M 0,1024 H 1024 V 0 H 0 Z" />
    </clipPath>
    <clipPath
       id="clipPath18-7"
       clipPathUnits="userSpaceOnUse">
      <path
         inkscape:connector-curvature="0"
         id="path16-5"
         d="M 0,1024 H 1024 V 0 H 0 Z" />
    </clipPath>
  </defs>
  <sodipodi:namedview
     id="base"
     pagecolor="#ffffff"
     bordercolor="#666666"
     borderopacity="1.0"
     inkscape:pageopacity="0.0"
     inkscape:pageshadow="2"
     inkscape:zoom="0.49497475"
     inkscape:cx="903.0174"
     inkscape:cy="-39.556902"
     inkscape:document-units="mm"
     inkscape:current-layer="layer1"
     showgrid="false"
     inkscape:window-width="1920"
     inkscape:window-height="1050"
     inkscape:window-x="0"
     inkscape:window-y="0"
     inkscape:window-maximized="1"
     units="px" />
  <metadata
     id="metadata5">
    <rdf:RDF>
      <cc:Work
         rdf:about="">
        <dc:format>image/svg+xml</dc:format>
        <dc:type
           rdf:resource="http://purl.org/dc/dcmitype/StillImage" />
        <dc:title></dc:title>
      </cc:Work>
    </rdf:RDF>
  </metadata>
  <g
     inkscape:label="Layer 1"
     inkscape:groupmode="layer"
     id="layer1"
     transform="translate(0,-236.14506)">
    <g
       transform="matrix(0.35277777,0,0,-0.35277777,6.0738636,486.16656)"
       inkscape:label="REAK"
       id="g10">
      <g
         id="g12"
         transform="translate(-134.85537,93.944189)">
        <g
           clip-path="url(#clipPath18-7)"
           id="g14">
          <g
             transform="translate(323.4194,448.6816)"
             id="g20">
            <path
               id="path22"
               style="fill:#24b7d7;fill-opacity:1;fill-rule:nonzero;stroke:none"
               d="m 0,0 h -60.151 l -40.347,40.112 h -57.003 V 0 h -41.457 V 81.332 H -83.84 c 7.034,0 12.831,1.272 17.398,3.813 5.797,3.291 8.697,8.15 8.697,14.58 0,12.559 -8.697,18.839 -26.095,18.839 h -115.118 l 27.021,41.221 h 84.21 c 20.851,0 37.755,-4.728 50.711,-14.182 14.56,-10.79 21.839,-26.152 21.839,-46.098 0,-11.229 -2.931,-21.385 -8.79,-30.471 C -29.83,59.948 -37.942,52.965 -48.306,48.09 Z"
               inkscape:connector-curvature="0" />
          </g>
          <g
             transform="translate(558.2363,448.6816)"
             id="g24">
            <path
               id="path26"
               style="fill:#24b7d7;fill-opacity:1;fill-rule:nonzero;stroke:none"
               d="M 0,0 24.986,41.221 H 80.693 L 46.084,98.841 -14.066,0 h -51.27 l 85.508,142.056 c 2.715,4.726 6.478,8.864 11.291,12.411 5.303,3.84 10.424,5.762 15.361,5.762 5.057,0 10.18,-1.922 15.36,-5.762 4.564,-3.401 8.265,-7.535 11.105,-12.411 L 156.76,0 Z"
               inkscape:connector-curvature="0" />
          </g>
          <g
             transform="translate(898.1777,448.6816)"
             id="g28">
            <path
               id="path30"
               style="fill:#24b7d7;fill-opacity:1;fill-rule:nonzero;stroke:none"
               d="m 0,0 h -62.818 l -64.037,62.178 V 0 h -41.459 v 159.785 h 41.459 V 99.786 l 64.037,59.999 h 62.132 l -84.72,-77.623 z"
               inkscape:connector-curvature="0" />
          </g>
          <g
             transform="translate(372.6509,567.2461)"
             id="g32">
            <path
               id="path34"
               style="fill:#24b7d7;fill-opacity:1;fill-rule:nonzero;stroke:none"
               d="m 0,0 h 92.626 l 26.651,41.221 H -41.458 V 0 Z"
               inkscape:connector-curvature="0" />
          </g>
          <g
             transform="translate(372.6509,550.1816)"
             id="g36">
            <path
               id="path38"
               style="fill:#24b7d7;fill-opacity:1;fill-rule:nonzero;stroke:none"
               d="M 0,0 V 0.063 H -41.458 V -40.809 H 86.416 L 112.8,0 Z"
               inkscape:connector-curvature="0" />
          </g>
          <g
             transform="translate(372.6509,489.9023)"
             id="g40">
            <path
               id="path42"
               style="fill:#24b7d7;fill-opacity:1;fill-rule:nonzero;stroke:none"
               d="M 0,0 H -41.458 V -41.221 H 92.626 L 119.277,0 H 92.626 Z"
               inkscape:connector-curvature="0" />
          </g>
          <g
             transform="translate(855.4746,529.7451)"
             id="g44"
             onmouseover="">
            <path
               id="path46"
               style="fill:#24b7d7;fill-opacity:1;fill-rule:nonzero;stroke:none"
               d="m 0,0 43.711,40.049 0.353,-82.44 z"
               inkscape:connector-curvature="0" />
          </g>
        </g>
      </g>
      <g
         style="font-variant:normal;font-weight:normal;font-stretch:normal;font-size:24.07749939px;font-family:Raleway;-inkscape-font-specification:Raleway-Regular;writing-mode:lr-tb;fill:#1da6bc;fill-opacity:1;fill-rule:nonzero;stroke:none"
         id="text50"
         transform="matrix(1,0,0,-1,897.7119,626.8325)"
         aria-label="TM" />
    </g>
  </g>
</svg>
